<svg width="4370" height="4271" viewBox="0 0 4370 4271" fill="none" xmlns="http://www.w3.org/2000/svg">
<ellipse cx="2182.5" cy="2387.57" rx="1933" ry="1883" fill="#001B3D"/>
<path d="M1216 1584.57C1610.31 1584.57 1929.5 1902.7 1929.5 2294.57C1929.5 2686.43 1610.31 3004.57 1216 3004.57C821.687 3004.57 502.5 2686.43 502.5 2294.57C502.5 1902.7 821.687 1584.57 1216 1584.57Z" stroke="white" stroke-width="120"/>
<path d="M3156 1584.57C3550.31 1584.57 3869.5 1902.7 3869.5 2294.57C3869.5 2686.43 3550.31 3004.57 3156 3004.57C2761.69 3004.57 2442.5 2686.43 2442.5 2294.57C2442.5 1902.7 2761.69 1584.57 3156 1584.57Z" stroke="white" stroke-width="120"/>
<path d="M1913 2646.07V2130.07H2436L2468 2646.07L2176 2348.07L1913 2646.07Z" fill="white"/>
<path d="M2186.1 2337.38L2226.06 2392.84C2226.07 2392.84 2226.07 2392.84 2226.07 2392.85C2226.08 2392.86 2226.09 2392.87 2226.1 2392.89C2226.14 2392.94 2226.18 2393 2226.25 2393.09C2226.38 2393.28 2226.58 2393.56 2226.85 2393.93C2227.39 2394.67 2228.2 2395.78 2229.25 2397.24C2231.36 2400.14 2234.48 2404.42 2238.45 2409.84C2246.41 2420.68 2257.79 2436.08 2271.47 2454.27C2298.87 2490.73 2335.27 2538.1 2371.62 2582.31C2407.51 2625.96 2440.22 2660.97 2463.87 2684.98C2475.69 2696.98 2485.21 2706.2 2491.71 2712.36C2494.95 2715.43 2497.44 2717.74 2499.07 2719.24C2499.89 2719.99 2500.49 2720.54 2500.87 2720.88C2501.06 2721.05 2501.19 2721.17 2501.26 2721.24C2501.29 2721.26 2501.31 2721.28 2501.32 2721.29L2501.33 2721.29C2501.33 2721.3 2501.33 2721.3 2501.33 2721.3L2501.33 2721.3L2535.12 2751.48L2508.36 2788.08L2508.36 2788.08C2508.36 2788.08 2508.36 2788.09 2508.35 2788.09C2508.34 2788.1 2508.33 2788.12 2508.31 2788.15C2508.27 2788.2 2508.21 2788.28 2508.13 2788.39C2507.97 2788.61 2507.73 2788.94 2507.42 2789.38C2506.78 2790.25 2505.84 2791.54 2504.62 2793.22C2502.18 2796.58 2498.63 2801.48 2494.21 2807.6C2485.38 2819.85 2473.11 2836.98 2459.35 2856.46C2431.67 2895.67 2398.59 2943.61 2375.35 2980.64C2351.54 3018.6 2314.81 3078.48 2283.92 3129.06C2268.5 3154.31 2254.58 3177.18 2244.52 3193.73C2239.48 3202.01 2235.41 3208.7 2232.6 3213.33C2231.2 3215.64 2230.11 3217.44 2229.37 3218.65C2229 3219.26 2228.72 3219.72 2228.53 3220.04C2228.44 3220.19 2228.37 3220.31 2228.32 3220.39C2228.29 3220.43 2228.28 3220.45 2228.26 3220.47C2228.26 3220.48 2228.25 3220.49 2228.25 3220.5C2228.25 3220.5 2228.25 3220.5 2228.25 3220.5C2228.25 3220.5 2228.25 3220.5 2185.5 3194.57L2228.25 3220.5L2182.34 3296.17L2141.22 3217.8V3217.79C2141.22 3217.79 2141.21 3217.77 2141.2 3217.75C2141.18 3217.71 2141.14 3217.64 2141.09 3217.54C2140.98 3217.34 2140.81 3217.02 2140.59 3216.59C2140.13 3215.74 2139.44 3214.44 2138.52 3212.72C2136.69 3209.3 2133.94 3204.22 2130.38 3197.74C2123.25 3184.77 2112.85 3166.19 2099.88 3143.95C2073.87 3099.38 2037.78 3040.56 1997.13 2982.87C1955.36 2923.6 1920.98 2874.71 1897.03 2840.63C1885.05 2823.59 1875.69 2810.26 1869.32 2801.18C1866.13 2796.64 1863.69 2793.17 1862.05 2790.83C1861.23 2789.66 1860.61 2788.77 1860.19 2788.18C1859.98 2787.88 1859.83 2787.65 1859.72 2787.5C1859.67 2787.43 1859.63 2787.37 1859.6 2787.33C1859.59 2787.32 1859.58 2787.3 1859.57 2787.29C1859.57 2787.29 1859.57 2787.28 1859.57 2787.28C1859.57 2787.28 1859.56 2787.28 1859.56 2787.28C1859.57 2787.27 1860.17 2786.85 1900.5 2758.57L1859.56 2787.28L1835.04 2752.3L1865.75 2722.61H1865.75C1865.75 2722.61 1865.76 2722.61 1865.76 2722.61C1865.77 2722.6 1865.78 2722.59 1865.8 2722.57C1865.84 2722.54 1865.89 2722.48 1865.97 2722.4C1866.13 2722.25 1866.37 2722.02 1866.69 2721.71C1867.33 2721.08 1868.29 2720.16 1869.53 2718.95C1872.01 2716.52 1875.63 2712.98 1880.12 2708.55C1889.12 2699.67 1901.62 2687.23 1915.59 2673.02C1943.83 2644.29 1976.93 2609.44 1999.48 2582.19C2022.7 2554.13 2058.96 2506.95 2089.9 2466.12C2105.26 2445.85 2119.13 2427.37 2129.17 2413.96C2134.19 2407.25 2138.24 2401.82 2141.04 2398.07C2142.43 2396.19 2143.52 2394.73 2144.25 2393.75C2144.62 2393.26 2144.89 2392.88 2145.08 2392.63C2145.17 2392.51 2145.24 2392.41 2145.29 2392.35C2145.31 2392.32 2145.33 2392.3 2145.34 2392.28C2145.35 2392.27 2145.35 2392.27 2145.35 2392.26C2145.35 2392.26 2145.36 2392.26 2145.36 2392.26L2186.1 2337.38Z" stroke="white" stroke-width="100"/>
<path d="M1394 2058.08C1448.01 2096.77 1488.84 2152.07 1510.7 2216.12C1532.56 2280.18 1534.33 2349.72 1515.75 2414.87C1497.18 2480.02 1459.21 2537.46 1407.23 2579.03C1355.26 2620.59 1291.94 2644.16 1226.26 2646.39C1160.58 2648.62 1095.9 2629.4 1041.4 2591.45C986.898 2553.5 945.36 2498.76 922.688 2435.01C900.016 2371.26 897.364 2301.74 915.109 2236.35C932.853 2170.95 970.092 2113 1021.53 2070.73" stroke="#00F2FF" stroke-width="101" stroke-linecap="round"/>
<line x1="1203.4" y1="1957.66" x2="1205.6" y2="2233.67" stroke="#00F2FF" stroke-width="101" stroke-linecap="round"/>
<path d="M3334 2058.08C3388.01 2096.77 3428.84 2152.07 3450.7 2216.12C3472.56 2280.18 3474.33 2349.72 3455.75 2414.87C3437.18 2480.02 3399.21 2537.46 3347.23 2579.03C3295.26 2620.59 3231.94 2644.16 3166.26 2646.39C3100.58 2648.62 3035.9 2629.4 2981.4 2591.45C2926.9 2553.5 2885.36 2498.76 2862.69 2435.01C2840.02 2371.26 2837.36 2301.74 2855.11 2236.35C2872.85 2170.95 2910.09 2113 2961.53 2070.73" stroke="#00F2FF" stroke-width="101" stroke-linecap="round"/>
<mask id="path-9-outside-1_0_1" maskUnits="userSpaceOnUse" x="-0.999756" y="-0.431885" width="4371" height="2294" fill="black">
<rect fill="white" x="-0.999756" y="-0.431885" width="4371" height="2294"/>
<path d="M169 345.568C169.065 345.756 286.123 686.645 736.499 966.568C1187 1246.57 1269 1149.71 1676 1464.07C2082.94 1778.38 2138.98 2244.43 2139 2244.57C2056.61 2069.47 1678 1733.07 1299 1649.07C919.999 1565.07 529.999 1501.07 321.499 1272.07C113 1043.07 113 786.069 113 646.068C113 506.068 169 345.568 169 345.568ZM4200.5 345.568C4200.5 345.568 4256.5 506.068 4256.5 646.068C4256.5 786.069 4256.5 1043.07 4048 1272.07C3839.5 1501.07 3449.5 1565.07 3070.5 1649.07C2691.5 1733.07 2312.89 2069.47 2230.5 2244.57C2230.5 2244.57 2286.5 1778.43 2693.5 1464.07C3100.5 1149.71 3182.5 1246.57 3633 966.568C4083.48 686.582 4200.49 345.601 4200.5 345.568Z"/>
</mask>
<path d="M169 345.568C169.065 345.756 286.123 686.645 736.499 966.568C1187 1246.57 1269 1149.71 1676 1464.07C2082.94 1778.38 2138.98 2244.43 2139 2244.57C2056.61 2069.47 1678 1733.07 1299 1649.07C919.999 1565.07 529.999 1501.07 321.499 1272.07C113 1043.07 113 786.069 113 646.068C113 506.068 169 345.568 169 345.568ZM4200.5 345.568C4200.5 345.568 4256.5 506.068 4256.5 646.068C4256.5 786.069 4256.5 1043.07 4048 1272.07C3839.5 1501.07 3449.5 1565.07 3070.5 1649.07C2691.5 1733.07 2312.89 2069.47 2230.5 2244.57C2230.5 2244.57 2286.5 1778.43 2693.5 1464.07C3100.5 1149.71 3182.5 1246.57 3633 966.568C4083.48 686.582 4200.49 345.601 4200.5 345.568Z" fill="#001B3D"/>
<path d="M169 345.568L275.879 308.882L169.874 0.0526123L62.3081 308.342L169 345.568ZM736.499 966.568L676.849 1062.54V1062.54L736.499 966.568ZM1676 1464.07L1745.07 1374.64V1374.64L1676 1464.07ZM2139 2244.57L2036.75 2292.68L2251.19 2231.08L2139 2244.57ZM1299 1649.07L1323.45 1538.75V1538.75L1299 1649.07ZM321.499 1272.07L237.944 1348.14H237.944L321.499 1272.07ZM113 646.068L0.000244141 646.068L113 646.068ZM4200.5 345.568L4307.19 308.342L4199.61 -6.10352e-05L4093.62 308.893L4200.5 345.568ZM4256.5 646.068L4369.5 646.068L4256.5 646.068ZM4048 1272.07L4131.56 1348.14V1348.14L4048 1272.07ZM3070.5 1649.07L3046.05 1538.75V1538.75L3070.5 1649.07ZM2230.5 2244.57L2118.31 2231.09L2332.75 2292.68L2230.5 2244.57ZM2693.5 1464.07L2624.42 1374.64V1374.64L2693.5 1464.07ZM3633 966.568L3692.65 1062.54V1062.54L3633 966.568ZM169 345.568L62.1212 382.254C67.6091 398.242 197.581 764.661 676.849 1062.54L736.499 966.568L796.15 870.595C374.665 608.629 270.52 293.269 275.879 308.882L169 345.568ZM736.499 966.568L676.849 1062.54C911.806 1208.57 1053.69 1257.58 1181.3 1307.63C1301.05 1354.6 1413.48 1404.08 1606.93 1553.5L1676 1464.07L1745.07 1374.64C1531.53 1209.7 1399.45 1150.43 1263.82 1097.24C1136.06 1047.13 1011.69 1004.56 796.15 870.595L736.499 966.568ZM1676 1464.07L1606.93 1553.5C1976.48 1838.93 2027.69 2265.41 2026.81 2258.05L2139 2244.57L2251.19 2231.08C2250.28 2223.46 2189.41 1717.83 1745.07 1374.64L1676 1464.07ZM2139 2244.57L2241.25 2196.46C2188.58 2084.52 2056.33 1943.31 1898.87 1822.89C1738.46 1700.22 1534.16 1585.45 1323.45 1538.75L1299 1649.07L1274.55 1759.39C1442.84 1796.69 1617.35 1892.11 1761.59 2002.42C1908.77 2114.98 2007.03 2229.51 2036.75 2292.68L2139 2244.57ZM1299 1649.07L1323.45 1538.75C1129.21 1495.7 945.288 1460.38 780.994 1407.4C617.256 1354.59 489.738 1289 405.055 1195.99L321.499 1272.07L237.944 1348.14C361.76 1484.13 533.492 1565.04 711.629 1622.49C889.21 1679.76 1089.79 1718.44 1274.55 1759.39L1299 1649.07ZM321.499 1272.07L405.055 1195.99C227.75 1001.25 226 783.993 226 646.068L113 646.068L0.000244141 646.068C0.000312805 788.145 -1.75003 1084.88 237.944 1348.14L321.499 1272.07ZM113 646.068L226 646.068C226 589.133 237.681 524.02 250.806 469.995C257.202 443.671 263.597 421.351 268.346 405.762C270.713 397.991 272.653 391.954 273.952 387.999C274.601 386.023 275.088 384.572 275.388 383.689C275.537 383.247 275.64 382.948 275.692 382.797C275.718 382.722 275.731 382.683 275.731 382.683C275.731 382.682 275.728 382.691 275.722 382.71C275.719 382.719 275.715 382.731 275.710 382.745C275.707 382.752 275.703 382.764 275.702 382.768C275.697 382.781 275.692 382.794 169 345.568C62.3081 308.342 62.3029 308.357 62.2976 308.372C62.2955 308.378 62.2899 308.394 62.2858 308.406C62.2775 308.430 62.2683 308.456 62.2583 308.485C62.2383 308.543 62.2148 308.610 62.1881 308.687C62.1345 308.842 62.0675 309.036 61.9875 309.268C61.8276 309.733 61.6156 310.352 61.3552 311.121C60.8343 312.657 60.1187 314.791 59.2364 317.477C57.473 322.846 55.037 330.442 52.1544 339.905C46.4031 358.785 38.7989 385.340 31.1944 416.641C16.3197 477.866 0.000205994 563.003 0.000244141 646.068L113 646.068ZM4200.5 345.568C4093.81 382.794 4093.80 382.781 4093.80 382.768C4093.80 382.764 4093.79 382.752 4093.79 382.745C4093.78 382.731 4093.78 382.719 4093.78 382.710C4093.77 382.691 4093.77 382.682 4093.77 382.683C4093.77 382.683 4093.78 382.722 4093.81 382.797C4093.86 382.948 4093.96 383.247 4094.11 383.689C4094.41 384.572 4094.90 386.023 4095.55 387.999C4096.85 391.954 4098.79 397.991 4101.15 405.762C4105.90 421.351 4112.30 443.671 4118.69 469.995C4131.82 524.020 4143.50 589.133 4143.50 646.068L4256.50 646.068L4369.50 646.068C4369.50 563.003 4353.18 477.866 4338.30 416.641C4330.70 385.340 4323.10 358.785 4317.34 339.905C4314.46 330.442 4312.03 322.846 4310.26 317.477C4309.38 314.791 4308.67 312.657 4308.14 311.121C4307.88 310.352 4307.67 309.733 4307.51 309.268C4307.43 309.036 4307.36 308.842 4307.31 308.687C4307.28 308.610 4307.26 308.543 4307.24 308.485C4307.23 308.456 4307.22 308.430 4307.21 308.406C4307.21 308.394 4307.20 308.378 4307.20 308.372C4307.20 308.357 4307.19 308.342 4200.50 345.568ZM4256.50 646.068L4143.50 646.068C4143.50 783.993 4141.75 1001.25 3964.44 1195.99L4048.00 1272.07L4131.56 1348.14C4371.25 1084.88 4369.50 788.145 4369.50 646.068L4256.50 646.068ZM4048.00 1272.07L3964.44 1195.99C3879.76 1289.00 3752.24 1354.59 3588.51 1407.40C3424.21 1460.38 3240.29 1495.70 3046.05 1538.75L3070.50 1649.07L3094.95 1759.39C3279.71 1718.44 3480.29 1679.76 3657.87 1622.49C3836.01 1565.04 4007.74 1484.13 4131.56 1348.14L4048.00 1272.07ZM3070.50 1649.07L3046.05 1538.75C2835.34 1585.45 2631.04 1700.22 2470.63 1822.89C2313.17 1943.31 2180.92 2084.52 2128.25 2196.46L2230.50 2244.57L2332.75 2292.68C2362.47 2229.51 2460.72 2114.98 2607.91 2002.42C2752.15 1892.11 2926.66 1796.69 3094.95 1759.39L3070.50 1649.07ZM2230.50 2244.57C2342.69 2258.05 2342.69 2258.09 2342.68 2258.13C2342.68 2258.14 2342.68 2258.17 2342.67 2258.20C2342.67 2258.24 2342.66 2258.28 2342.66 2258.30C2342.65 2258.36 2342.65 2258.39 2342.65 2258.40C2342.65 2258.40 2342.66 2258.30 2342.69 2258.09C2342.74 2257.68 2342.86 2256.83 2343.04 2255.58C2343.41 2253.07 2344.05 2248.93 2345.03 2243.31C2346.98 2232.06 2350.30 2214.92 2355.52 2193.07C2365.97 2149.29 2383.95 2087.07 2413.69 2015.63C2473.31 1872.43 2578.74 1695.48 2762.57 1553.50L2693.50 1464.07L2624.42 1374.64C2401.25 1547.01 2275.18 1760.32 2205.05 1928.77C2169.92 2013.16 2148.46 2087.13 2135.70 2140.57C2129.31 2167.34 2125.07 2189.07 2122.38 2204.54C2121.03 2212.28 2120.07 2218.46 2119.41 2222.94C2119.09 2225.17 2118.84 2226.98 2118.66 2228.35C2118.56 2229.03 2118.49 2229.60 2118.43 2230.06C2118.40 2230.29 2118.38 2230.49 2118.36 2230.66C2118.35 2230.75 2118.34 2230.83 2118.33 2230.90C2118.32 2230.93 2118.32 2230.98 2118.32 2231.00C2118.31 2231.05 2118.31 2231.09 2230.50 2244.57ZM2693.50 1464.07L2762.57 1553.50C2956.02 1404.08 3068.45 1354.60 3188.20 1307.63C3315.81 1257.58 3457.69 1208.57 3692.65 1062.54L3633.00 966.568L3573.35 870.595C3357.81 1004.56 3233.44 1047.13 3105.68 1097.24C2970.05 1150.43 2837.97 1209.70 2624.42 1374.64L2693.50 1464.07ZM3633.00 966.568L3692.65 1062.54C4172.03 764.593 4301.95 398.076 4307.38 382.243L4200.50 345.568L4093.62 308.893C4099.03 293.125 3994.93 608.570 3573.35 870.595L3633.00 966.568Z" fill="white" mask="url(#path-9-outside-1_0_1)"/>
<line x1="3143.4" y1="1957.66" x2="3145.6" y2="2233.67" stroke="#00F2FF" stroke-width="101" stroke-linecap="round"/>
</svg>
